<svg xmlns="http://www.w3.org/2000/svg" xmlns:xlink="http://www.w3.org/1999/xlink" viewBox="0 0 206.99 53.64"><defs><style>.cls-1{fill:none;}.cls-2{clip-path:url(#clip-path);}.cls-3{fill:#010101;}</style><clipPath id="clip-path" transform="translate(-41.18 -30.37)"><rect class="cls-1" width="289.36" height="114.38"/></clipPath></defs><g id="Layer_2" data-name="Layer 2"><g id="Layer_1-2" data-name="Layer 1"><g class="cls-2"><path class="cls-3" d="M115.76,65.72l5.82-19.16h8.77l-8.11,22.86a6,6,0,0,1-5.68,4H114.9a6,6,0,0,1-5.67-4l-8.11-22.86h8.81Z" transform="translate(-41.18 -30.37)"/><path class="cls-3" d="M136.51,43.76A5.11,5.11,0,0,1,133,42.51a4.22,4.22,0,0,1-1.35-3.18A4.13,4.13,0,0,1,133,36.16a5,5,0,0,1,3.56-1.31A4.79,4.79,0,0,1,140,36.16a4.07,4.07,0,0,1,1.4,3.17,4.16,4.16,0,0,1-1.4,3.18A4.88,4.88,0,0,1,136.51,43.76Zm4.1,2.8V73.43h-8.24V46.56Z" transform="translate(-41.18 -30.37)"/><path class="cls-3" d="M156.06,73.81a15.5,15.5,0,0,1-6.26-1.2,10.75,10.75,0,0,1-4.33-3.27,8.86,8.86,0,0,1-1.79-4.72h8.14a3.14,3.14,0,0,0,1.3,2.26,4.59,4.59,0,0,0,2.84.87,4.09,4.09,0,0,0,2.36-.58,1.9,1.9,0,0,0,.87-1.59,1.77,1.77,0,0,0-1.2-1.69,23.36,23.36,0,0,0-3.9-1.25,39.85,39.85,0,0,1-4.82-1.39A8.83,8.83,0,0,1,146,58.89a6.57,6.57,0,0,1-1.4-4.39,7.44,7.44,0,0,1,1.25-4.19,8.76,8.76,0,0,1,3.76-3,14.51,14.51,0,0,1,5.92-1.11q5.06,0,8,2.51a9.69,9.69,0,0,1,3.37,6.64h-7.61a3.25,3.25,0,0,0-1.25-2.21,4.14,4.14,0,0,0-2.7-.82,3.59,3.59,0,0,0-2.21.58,1.69,1.69,0,0,0-.77,1.49,1.84,1.84,0,0,0,1.2,1.73,20.27,20.27,0,0,0,3.85,1.16,39.14,39.14,0,0,1,4.87,1.54,7.84,7.84,0,0,1,3.27,2.41,6.64,6.64,0,0,1,1.49,4.43,7.17,7.17,0,0,1-1.34,4.24,8.62,8.62,0,0,1-3.81,2.88A14.32,14.32,0,0,1,156.06,73.81Z" transform="translate(-41.18 -30.37)"/><path class="cls-3" d="M181.47,73.81a15.5,15.5,0,0,1-6.26-1.2,10.78,10.78,0,0,1-4.34-3.27,8.84,8.84,0,0,1-1.78-4.72h8.14a3.14,3.14,0,0,0,1.3,2.26,4.59,4.59,0,0,0,2.84.87,4.09,4.09,0,0,0,2.36-.58,1.9,1.9,0,0,0,.87-1.59,1.77,1.77,0,0,0-1.2-1.69,23.23,23.23,0,0,0-3.91-1.25,40.17,40.17,0,0,1-4.81-1.39,8.75,8.75,0,0,1-3.32-2.36A6.52,6.52,0,0,1,170,54.5a7.44,7.44,0,0,1,1.25-4.19,8.76,8.76,0,0,1,3.76-3,14.51,14.51,0,0,1,5.92-1.11q5.06,0,8,2.51a9.69,9.69,0,0,1,3.37,6.64H184.6a3.25,3.25,0,0,0-1.25-2.21,4.16,4.16,0,0,0-2.7-.82,3.59,3.59,0,0,0-2.21.58,1.7,1.7,0,0,0-.78,1.49,1.85,1.85,0,0,0,1.21,1.73,20.27,20.27,0,0,0,3.85,1.16,38.38,38.38,0,0,1,4.86,1.54,7.81,7.81,0,0,1,3.28,2.41,6.64,6.64,0,0,1,1.49,4.43A7.11,7.11,0,0,1,191,69.87a8.53,8.53,0,0,1-3.8,2.88A14.32,14.32,0,0,1,181.47,73.81Z" transform="translate(-41.18 -30.37)"/><path class="cls-3" d="M200.09,43.76a5.12,5.12,0,0,1-3.57-1.25,4.22,4.22,0,0,1-1.34-3.18,4.12,4.12,0,0,1,1.34-3.17,5,5,0,0,1,3.57-1.31,4.75,4.75,0,0,1,3.46,1.31,4,4,0,0,1,1.4,3.17,4.13,4.13,0,0,1-1.4,3.18A4.84,4.84,0,0,1,200.09,43.76Zm4.09,2.8V73.43H196V46.56Z" transform="translate(-41.18 -30.37)"/><path class="cls-3" d="M216.94,50.36a8.5,8.5,0,0,1,3.32-3,10.41,10.41,0,0,1,5-1.16,11.07,11.07,0,0,1,6,1.69,11.52,11.52,0,0,1,4.24,4.81,15.85,15.85,0,0,1,1.59,7.27,16.1,16.1,0,0,1-1.59,7.32,11.88,11.88,0,0,1-4.24,4.87,11.15,11.15,0,0,1-6,1.68,10.55,10.55,0,0,1-5-1.1,9,9,0,0,1-3.32-3v3.76H208.7V37.79h8.24Zm11.75,9.58A6.48,6.48,0,0,0,227,55.13a5.51,5.51,0,0,0-4.18-1.78,5.61,5.61,0,0,0-4.19,1.78A6.77,6.77,0,0,0,216.89,60a6.78,6.78,0,0,0,1.69,4.87,5.81,5.81,0,0,0,8.37,0A6.85,6.85,0,0,0,228.69,59.94Z" transform="translate(-41.18 -30.37)"/><path class="cls-3" d="M248.18,37.79V73.43h-8.24V37.79Z" transform="translate(-41.18 -30.37)"/><path class="cls-3" d="M68,30.37A26.82,26.82,0,1,0,94.82,57.19,26.86,26.86,0,0,0,68,30.37ZM80.61,53.75a.28.28,0,0,0-.3-.08,4.19,4.19,0,0,0-.59.22l-1.47.8c-.89.48-1.79,1-2.68,1.47-.74.4-1.48.8-2.21,1.22s-1.68.93-2.52,1.4c-.5.28-1,.54-1.51.81-.17.09-.33.19-.5.27s-.16,0-.21-.07a.24.24,0,0,1,.09-.36c.53-.31,1-.66,1.55-1l3-1.95c.78-.51,1.57-1,2.35-1.5l1-.68,1.47-1c.41-.27.82-.51,1.23-.76A11.78,11.78,0,0,1,80.47,52c.28-.12.57-.2.83-.34l.23-.07a5.65,5.65,0,0,1,1.92-.18.2.2,0,0,1,.19.07.12.12,0,0,0,.12,0,1,1,0,0,1,.58.33c.07.06.07.17.11.25s.09.15.19.05a.57.57,0,0,0,.16-.39c0-.19,0-.38.07-.58a4,4,0,0,0-.17-1.68,3.08,3.08,0,0,0-1-1.41,5.38,5.38,0,0,0-1.54-.89,9.2,9.2,0,0,0-1.77-.52c-.39-.06-.79-.09-1.19-.13a13.87,13.87,0,0,0-1.7-.06,19.7,19.7,0,0,0-3.26.35,23.46,23.46,0,0,0-2.34.57,24.72,24.72,0,0,0-2.54.91,12.68,12.68,0,0,0-1.77.88,3.81,3.81,0,0,0-1.1,1,3.58,3.58,0,0,0-.43.8s-1.42,3.39-2,4.45l-.1.14c-.06.17-.21.22-.34.29a.93.93,0,0,1-.75,0,4.26,4.26,0,0,1-.73-.32q-.86-.46-1.74-.9c-.47-.24-1-.47-1.42-.73s-.89-.44-1.32-.68a.93.93,0,0,1-.43-.38.41.41,0,0,1,0-.39,1,1,0,0,1,.18-.26,1,1,0,0,1,.18-.12c.35-.16,8.23-2.81,8.5-2.92a.6.6,0,0,0,.13-.08.61.61,0,0,0,.15-.26.2.2,0,0,0,0-.17.71.71,0,0,0-.26-.31,4.85,4.85,0,0,0-.57-.35A7.34,7.34,0,0,0,63,47.18c-.46-.08-.93-.12-1.4-.16a12,12,0,0,0-1.89.07c-.52,0-1,.09-1.55.15s-.89.14-1.33.21l-3,.53-3.48.57c-.74.13-1.48.24-2.22.38l-1.66.29h-.05A22.94,22.94,0,1,1,62.14,79.38l.11-.16c.07-.08.21-.27,1.24-1.65s1.07-1.42,1.72-2.29l1.49-2.06c.83-1.14,2.17-3,3.69-5l.86-1.13c.55-.73.62-.86,1.64-2.26.47-.66.78-1.07,1.13-1.54l.55-.73c1.16-1.52,3.2-4.39,3.54-4.77a.21.21,0,0,0,.09-.11,1.6,1.6,0,0,1,.28-.43c.1-.12.18-.25.28-.36a2,2,0,0,0,.23-.28c.36-.54.75-1,1.14-1.56a3.81,3.81,0,0,0,.38-.65c.06-.12.1-.24.15-.36A.24.24,0,0,0,80.61,53.75Z" transform="translate(-41.18 -30.37)"/></g></g></g></svg>